<svg xmlns:xlink="http://www.w3.org/1999/xlink" xmlns="http://www.w3.org/2000/svg" aria-hidden="true" focusable="false" class="ud-icon ud-icon-small" width="20"  height="20" ><defs><symbol id="icon-filter" viewBox="0 -960 960 960"><path d="M441.15-260q-12.75 0-21.37-8.63-8.63-8.63-8.63-21.38 0-12.76 8.63-21.37 8.62-8.62 21.37-8.62h77.31q12.75 0 21.38 8.63 8.62 8.63 8.62 21.38 0 12.76-8.62 21.37-8.63 8.62-21.38 8.62zm-155-190q-12.75 0-21.37-8.63t-8.62-21.38q0-12.76 8.62-21.37 8.62-8.62 21.37-8.62h387.31q12.75 0 21.38 8.63 8.62 8.63 8.62 21.38 0 12.76-8.62 21.37-8.63 8.62-21.38 8.62zM170-640q-12.75 0-21.37-8.63-8.63-8.63-8.63-21.38 0-12.76 8.63-21.37Q157.25-700 170-700h620q12.75 0 21.37 8.63 8.63 8.63 8.63 21.38 0 12.76-8.63 21.37Q802.75-640 790-640z"></path></symbol></defs><use xlink:href="#icon-filter"></use></svg>