<svg xmlns:xlink="http://www.w3.org/1999/xlink" xmlns="http://www.w3.org/2000/svg" role="img" focusable="false" class="ud-icon ud-icon-small ud-icon-color-neutral" width="20"  height="20" ><defs><symbol id="icon-play" viewBox="0 -960 960 960"><path d="M431.77-345.39 606-457.31q12.84-8.15 12.84-22.65T606-502.69L431.77-614.61q-13.46-9.23-27.62-1.48Q390-608.34 390-591.92v223.84q0 16.42 14.15 24.17 14.16 7.75 27.62-1.48M480.07-100q-78.84 0-148.21-29.92t-120.68-81.21-81.25-120.63Q100-401.1 100-479.93q0-78.84 29.92-148.21t81.21-120.68 120.63-81.25Q401.1-860 479.93-860q78.84 0 148.21 29.92t120.68 81.21 81.25 120.63Q860-558.9 860-480.07q0 78.84-29.92 148.21t-81.21 120.68-120.63 81.25Q558.9-100 480.07-100"></path></symbol></defs><use xlink:href="#icon-play"></use></svg>