<svg xmlns:xlink="http://www.w3.org/1999/xlink" xmlns="http://www.w3.org/2000/svg" aria-hidden="true" focusable="false" class="ud-icon ud-icon-xsmall ud-icon-color-neutral ud-block-list-item-icon" width="16"  height="20" ><defs><symbol id="icon-rating-star" viewBox="0 -960 960 960"><path d="m480-292.46-155.61 93.84q-8.7 5.08-17.43 4.27t-15.8-5.88q-7.08-5.08-10.93-13.27-3.84-8.19-1.23-18.12l41.31-176.69-137.38-118.92q-7.7-6.69-9.81-15.5-2.12-8.81 1.11-17.12 3.23-8.3 9.31-13.57t16.62-6.89l181.3-15.84L451.85-763q3.84-9.31 11.65-13.77t16.5-4.46 16.5 4.46T508.15-763l70.39 166.85 181.3 15.84q10.54 1.62 16.62 6.89t9.31 13.57q3.23 8.31 1.11 17.12-2.11 8.81-9.81 15.5L639.69-408.31 681-231.62q2.61 9.93-1.23 18.12-3.85 8.19-10.93 13.27-7.07 5.07-15.8 5.88t-17.43-4.27z"></path></symbol></defs><use xlink:href="#icon-rating-star"></use></svg>