<svg xmlns:xlink="http://www.w3.org/1999/xlink" xmlns="http://www.w3.org/2000/svg" aria-hidden="true" focusable="false" class="ud-icon ud-icon-xsmall ud-icon-color-info" width="100"  height="100" ><defs><symbol id="icon-verified" viewBox="0 -960 960 960"><path d="m438-437.38-64.92-64.31q-8.31-8.31-20.58-8.5t-21.58 9.11q-8.69 8.7-8.69 21.08t8.69 21.08l81.77 81.77q10.85 10.84 25.31 10.84t25.31-10.84l165.77-165.77q8.92-8.93 8.8-20.89-.11-11.96-8.8-21.27-9.31-9.3-21.39-9.61-12.07-.31-21.38 9zM336.39-112.69l-55.31-93-104.62-22.47q-13.46-2.61-21.5-14.15t-6.42-25l10.23-107.61-71.15-81.39q-9.23-9.84-9.23-23.69t9.23-23.69l71.15-81.39-10.23-107.61q-1.62-13.46 6.42-25t21.5-14.15l104.62-22.47 55.31-93q7.23-11.84 19.69-16.15t25.31 1.31L480-820.46l98.61-41.69q12.85-5.62 25.31-1.31t19.69 16.15l55.31 93 104.62 22.47q13.46 2.61 21.5 14.15t6.42 25l-10.23 107.61 71.15 81.39q9.23 9.84 9.23 23.69t-9.23 23.69l-71.15 81.39 10.23 107.61q1.62 13.46-6.42 25t-21.5 14.15l-104.62 22.47-55.31 93q-7.23 11.84-19.69 16.15t-25.31-1.31L480-139.54l-98.61 41.69q-12.85 5.62-25.31 1.31t-19.69-16.15M378-162l102-43.23L583.23-162 640-258l110-25.23L740-396l74-84-74-85.23L750-678l-110-24-58-96-102 43.23L376.77-798 320-702l-110 24 10 112.77L146-480l74 84-10 114 110 24zm102-318"></path></symbol></defs><use xlink:href="#icon-verified"></use></svg>