<svg xmlns:xlink="http://www.w3.org/1999/xlink" xmlns="http://www.w3.org/2000/svg" aria-label="Go to cart" role="img" focusable="false" class="ud-icon ud-icon-small ud-icon-color-neutral" width="20"  height="20" ><defs><symbol id="icon-cart" viewBox="0 -960 960 960"><path d="M286.15-97.69q-29.15 0-49.57-20.43-20.42-20.42-20.42-49.57 0-29.16 20.42-49.58t49.57-20.42q29.16 0 49.58 20.42t20.42 49.58q0 29.15-20.42 49.57-20.42 20.43-49.58 20.43m387.7 0q-29.16 0-49.58-20.43-20.42-20.42-20.42-49.57 0-29.16 20.42-49.58t49.58-20.42q29.15 0 49.57 20.42t20.42 49.58q0 29.15-20.42 49.57Q703-97.69 673.85-97.69M240.61-730 342-517.69h272.69q3.46 0 6.16-1.73 2.69-1.73 4.61-4.81l107.31-195q2.31-4.23.38-7.5-1.92-3.27-6.54-3.27zm-28.76-60h555.38q24.54 0 37.11 20.89 12.58 20.88 1.2 42.65L677.38-494.31q-9.84 17.31-26.03 26.96-16.2 9.66-35.5 9.66H324l-46.31 84.61q-3.08 4.62-.19 10 2.88 5.39 8.65 5.39h427.7q12.76 0 21.38 8.61 8.61 8.62 8.61 21.39t-8.61 21.38q-8.62 8.62-21.38 8.62h-427.7q-40 0-60.11-34.5-20.12-34.5-1.42-68.89l57.07-102.61L136.16-810H90q-12.77 0-21.38-8.62Q60-827.23 60-840t8.62-21.38Q77.23-870 90-870h61.15q10.24 0 19.08 5.42 8.85 5.43 13.46 15.27zM342-517.69h280z"></path></symbol></defs><use xlink:href="#icon-cart"></use></svg>