<svg xmlns:xlink="http://www.w3.org/1999/xlink" xmlns="http://www.w3.org/2000/svg" aria-hidden="true" focusable="false" class="ud-icon ud-icon-xsmall ud-icon-color-neutral ud-block-list-item-icon" width="24"  height="24" ><defs><symbol id="icon-lifetime" viewBox="0 0 24 24"><path d="M16.95 8c-1.08 0-2.1.416-2.827 1.138L12 11.004 10.86 12h.008L8.85 13.777a2.54 2.54 0 0 1-1.8.736c-1.402 0-2.542-1.123-2.542-2.513s1.14-2.513 2.542-2.513c.683 0 1.32.26 1.83.766l.354.31a.747.747 0 1 0 .984-1.124l-.303-.264A4.05 4.05 0 0 0 7.05 8C4.815 8 3 9.8 3 12s1.815 4 4.05 4c1.08 0 2.1-.416 2.827-1.137L12 13.003l.008.008L13.14 12h-.008l2.018-1.777a2.54 2.54 0 0 1 1.8-.736c1.402 0 2.543 1.123 2.543 2.513s-1.14 2.513-2.543 2.513c-.675 0-1.32-.26-1.83-.766l-.362-.317a.747.747 0 1 0-.984 1.123l.311.272a4.06 4.06 0 0 0 2.865 1.168c2.235 0 4.05-1.792 4.05-4S19.185 8 16.95 8"></path></symbol></defs><use xlink:href="#icon-lifetime"></use></svg>