<svg xmlns:xlink="http://www.w3.org/1999/xlink" xmlns="http://www.w3.org/2000/svg" aria-label="Mark review by Jürgen B. as unhelpful" role="img" focusable="false" class="ud-icon ud-icon-small ud-icon-color-neutral" width="20"  height="20" ><defs><symbol id="icon-thumb-down" viewBox="0 -960 960 960"><path d="M132.31-340q-28.54 0-50.42-21.89Q60-383.77 60-412.31v-64.61q0-6.3 1.62-13.5 1.61-7.19 3.61-13.43l114.64-270.5q8.59-19.19 28.82-32.42T250.91-820h420.63v480L438.85-109.31q-11.93 11.92-27.62 14.23t-30.07-5.38q-14.39-7.7-21.08-21.85t-2.85-29.31L400.31-340zm479.23-25.54V-760H250.77q-4.23 0-8.65 2.31-4.43 2.31-6.74 7.69L120-480v67.69q0 5.39 3.46 8.85t8.85 3.46h343.84L426-180.77zM787.69-820q29.83 0 51.07 21.24T860-747.69v335.38q0 29.83-21.24 51.07T787.69-340H671.54v-60h116.15q5.39 0 8.85-3.46t3.46-8.85v-335.38q0-5.39-3.46-8.85t-8.85-3.46H671.54v-60zm-176.15 60v394.46z"></path></symbol></defs><use xlink:href="#icon-thumb-down"></use></svg>