<svg xmlns:xlink="http://www.w3.org/1999/xlink" xmlns="http://www.w3.org/2000/svg" aria-hidden="true" focusable="false" class="ud-icon ud-icon-xsmall ud-icon-color-neutral ud-block-list-item-icon" width="16"  height="20" ><defs><symbol id="icon-downloadable-resource" viewBox="0 -960 960 960"><path d="m690-247.77-53.31-53.31q-8.31-8.3-20.69-8.3t-20.69 8.3q-8.31 8.31-8.31 20.95t8.31 20.82l99.38 99.77q10.85 10.85 25.31 10.85t25.31-10.85l99.77-99.77q8.3-8.18 8.3-20.82t-8.3-20.95q-8.31-8.3-20.95-8.3t-20.82 8.3L750-247.77V-399q0-12.75-8.63-21.37-8.63-8.63-21.38-8.63-12.76 0-21.37 8.63Q690-411.75 690-399zM600-70h240q12.75 0 21.37 8.63Q870-52.74 870-39.99q0 12.76-8.63 21.37Q852.75-10 840-10H600q-12.75 0-21.37-8.63Q570-27.26 570-40.01q0-12.76 8.63-21.37Q587.25-70 600-70M242.31-170q-29.54 0-50.92-21.39Q170-212.77 170-242.31v-555.38q0-29.54 21.39-50.92Q212.77-870 242.31-870h247.77q14.63 0 27.89 5.62 13.26 5.61 23.11 15.46l187.84 187.84q9.85 9.85 15.46 23.11 5.62 13.26 5.62 27.89v63.39q0 12.75-8.63 21.37-8.63 8.63-21.38 8.63-12.76 0-21.37-8.63-8.62-8.62-8.62-21.37V-610H544.23q-22.59 0-38.41-15.82T490-664.23V-810H242.31q-4.62 0-8.46 3.85-3.85 3.84-3.85 8.46v555.38q0 4.62 3.85 8.46 3.84 3.85 8.46 3.85h210q12.75 0 21.37 8.63 8.63 8.63 8.63 21.38 0 12.76-8.63 21.37-8.62 8.62-21.37 8.62zM230-230v-580z"></path></symbol></defs><use xlink:href="#icon-downloadable-resource"></use></svg>