<svg xmlns:xlink="http://www.w3.org/1999/xlink" xmlns="http://www.w3.org/2000/svg" aria-hidden="true" focusable="false" id="u240-popper-trigger--3076" aria-expanded="false" tabindex="0" class="ud-icon ud-icon-small ud-icon-color-neutral related-searches--related-searches-info-icon--eCoKd" width="20"  height="20" ><defs><symbol id="icon-info" viewBox="0 -960 960 960"><path d="M480.01-290q12.76 0 21.37-8.63Q510-307.25 510-320v-170q0-12.75-8.63-21.38-8.63-8.62-21.38-8.62-12.76 0-21.37 8.62Q450-502.75 450-490v170q0 12.75 8.63 21.37 8.63 8.63 21.38 8.63M480-588.46q13.73 0 23.02-9.29t9.29-23.02-9.29-23.02q-9.29-9.28-23.02-9.28t-23.02 9.28q-9.29 9.29-9.29 23.02t9.29 23.02 23.02 9.29m.07 488.46q-78.84 0-148.21-29.92t-120.68-81.21-81.25-120.63Q100-401.1 100-479.93q0-78.84 29.92-148.21t81.21-120.68 120.63-81.25Q401.1-860 479.93-860q78.84 0 148.21 29.92t120.68 81.21 81.25 120.63Q860-558.9 860-480.07q0 78.84-29.92 148.21t-81.21 120.68-120.63 81.25Q558.9-100 480.07-100"></path></symbol></defs><use xlink:href="#icon-info"></use></svg>