<svg xmlns:xlink="http://www.w3.org/1999/xlink" xmlns="http://www.w3.org/2000/svg" aria-hidden="true" focusable="false" class="ud-icon ud-icon-xsmall ud-icon-color-neutral ud-block-list-item-icon" width="16"  height="20" ><defs><symbol id="icon-code" viewBox="0 -960 960 960"><path d="m178.77-479.38 162.31 162.3q8.3 8.31 8.5 20.89.19 12.57-8.5 21.27-8.7 8.69-21.08 8.69t-21.08-8.69L119.15-454.69q-5.61-5.62-7.92-11.85T108.92-480t2.31-13.46 7.92-11.85l179.77-179.77q8.93-8.92 21.2-9.11 12.26-.19 21.57 9.11 9.31 9.31 9.31 21.39 0 12.07-9.31 21.38zm602.46-1.24-162.31-162.3q-8.3-8.31-8.5-20.89-.19-12.57 8.5-21.27 8.7-8.69 21.08-8.69t21.08 8.69l179.77 179.77q5.61 5.62 7.92 11.85t2.31 13.46-2.31 13.46-7.92 11.85L661.08-274.92q-8.93 8.92-20.89 8.8-11.96-.11-21.27-9.42-9.3-9.31-9.3-21.38 0-12.08 9.3-21.39z"></path></symbol></defs><use xlink:href="#icon-code"></use></svg>