<svg xmlns:xlink="http://www.w3.org/1999/xlink" xmlns="http://www.w3.org/2000/svg" aria-hidden="true" focusable="false" class="ud-icon ud-icon-xsmall ud-icon-color-neutral ud-block-list-item-icon" width="16"  height="20" ><defs><symbol id="icon-certificate" viewBox="0 -960 960 960"><path d="m480-488-65.31 50.46q-5.61 4.23-11.04.31-5.42-3.92-3.42-10.16l24.85-81.69-66.16-50.61q-5-4.23-2.8-10.35 2.19-6.11 8.42-6.11h81.77l24.84-80.46q2-6.24 8.85-6.24t8.85 6.24l24.84 80.46h81.16q6.23 0 8.73 6.11 2.5 6.12-2.5 10.35l-66.77 50.61 24.84 81.69q2 6.24-3.42 10.16t-11.04-.31zm0 347.23L307.23-86.08q-17.69 6.23-32.46-4.81T260-120v-237.08q-38-39.69-59-91.77-21-52.07-21-111.15 0-125.54 87.23-212.77T480-860t212.77 87.23T780-560q0 59.08-21 111.15-21 52.08-59 91.77V-120q0 18.07-14.77 29.11t-32.46 4.81zM480-320q100 0 170-70t70-170-70-170-170-70-170 70-70 170 70 170 170 70M320-158.62l160-42.92 160 42.92v-148.61q-34.23 22.31-74.92 34.77Q524.38-260 480-260t-85.08-12.46q-40.69-12.46-74.92-34.77zm160-74.3"></path></symbol></defs><use xlink:href="#icon-certificate"></use></svg>