<svg xmlns:xlink="http://www.w3.org/1999/xlink" xmlns="http://www.w3.org/2000/svg" aria-label="Mark review by Jürgen B. as helpful" role="img" focusable="false" class="ud-icon ud-icon-small ud-icon-color-neutral" width="20"  height="20" ><defs><symbol id="icon-thumb-up" viewBox="0 -960 960 960"><path d="M827.69-620q28.54 0 50.42 21.89Q900-576.23 900-547.69v64.61q0 6.3-1.62 13.5-1.61 7.19-3.61 13.43l-114.64 270.5q-8.59 19.19-28.82 32.42T709.09-140H288.46v-480l232.69-230.69q11.93-11.92 27.62-14.23t30.07 5.38q14.39 7.7 21.08 21.85t2.85 29.31L559.69-620zm-479.23 25.54V-200h360.77q4.23 0 8.65-2.31 4.43-2.31 6.74-7.69L840-480v-67.69q0-5.39-3.46-8.85t-8.85-3.46H483.85L534-779.23zM172.31-140q-29.83 0-51.07-21.24T100-212.31v-335.38q0-29.83 21.24-51.07T172.31-620h116.15v60H172.31q-5.39 0-8.85 3.46t-3.46 8.85v335.38q0 5.39 3.46 8.85t8.85 3.46h116.15v60zm176.15-60v-394.46z"></path></symbol></defs><use xlink:href="#icon-thumb-up"></use></svg>