<svg xmlns:xlink="http://www.w3.org/1999/xlink" xmlns="http://www.w3.org/2000/svg" aria-label="Open side drawer" role="img" focusable="false" class="ud-icon ud-icon-small ud-icon-color-neutral" width="20"  height="20" ><defs><symbol id="icon-menu" viewBox="0 -960 960 960"><path d="M170-254.62q-12.75 0-21.37-8.63-8.63-8.62-8.63-21.38 0-12.75 8.63-21.37 8.62-8.61 21.37-8.61h620q12.75 0 21.37 8.62 8.63 8.63 8.63 21.39 0 12.75-8.63 21.37-8.62 8.61-21.37 8.61zM170-450q-12.75 0-21.37-8.63-8.63-8.63-8.63-21.38 0-12.76 8.63-21.37Q157.25-510 170-510h620q12.75 0 21.37 8.63 8.63 8.63 8.63 21.38 0 12.76-8.63 21.37Q802.75-450 790-450zm0-195.39q-12.75 0-21.37-8.62-8.63-8.63-8.63-21.39 0-12.75 8.63-21.37 8.62-8.61 21.37-8.61h620q12.75 0 21.37 8.63 8.63 8.62 8.63 21.38 0 12.75-8.63 21.37-8.62 8.61-21.37 8.61z"></path></symbol></defs><use xlink:href="#icon-menu"></use></svg>