<svg xmlns:xlink="http://www.w3.org/1999/xlink" xmlns="http://www.w3.org/2000/svg" aria-hidden="true" focusable="false" class="ud-icon ud-icon-xsmall ud-icon-color-neutral ud-block-list-item-icon" width="16"  height="20" ><defs><symbol id="icon-mobile" viewBox="0 -960 960 960"><path d="M292.31-60Q262-60 241-81t-21-51.31v-695.38Q220-858 241-879t51.31-21h375.38Q698-900 719-879t21 51.31v695.38Q740-102 719-81t-51.31 21zM280-249.23v116.92q0 4.62 3.85 8.46 3.84 3.85 8.46 3.85h375.38q4.62 0 8.46-3.85 3.85-3.84 3.85-8.46v-116.92zm200 100q14.69 0 25.04-10.35 10.34-10.34 10.34-25.04 0-14.69-10.34-25.03Q494.69-220 480-220t-25.04 10.35q-10.34 10.34-10.34 25.03 0 14.7 10.34 25.04 10.35 10.35 25.04 10.35m-200-160h400V-730H280zM280-790h400v-37.69q0-4.62-3.85-8.46-3.84-3.85-8.46-3.85H292.31q-4.62 0-8.46 3.85-3.85 3.84-3.85 8.46zm0 540.77V-120zM280-790v-50z"></path></symbol></defs><use xlink:href="#icon-mobile"></use></svg>