<svg xmlns:xlink="http://www.w3.org/1999/xlink" xmlns="http://www.w3.org/2000/svg" aria-hidden="true" focusable="false" class="ud-icon ud-icon-small" width="20"  height="20" ><defs><symbol id="icon-edit" viewBox="0 -960 960 960"><path d="M200-200h50.46l409.46-409.46-50.46-50.46L200-250.46zm-23.84 60q-15.37 0-25.76-10.4-10.4-10.39-10.4-25.76v-69.3q0-14.63 5.62-27.89 5.61-13.26 15.46-23.11l506.54-506.31q9.07-8.24 20.03-12.73 10.97-4.5 23-4.5t23.3 4.27q11.28 4.27 19.97 13.58l48.85 49.46q9.31 8.69 13.27 20t3.96 22.62q0 12.07-4.12 23.03-4.12 10.97-13.11 20.04L296.46-161.08q-9.85 9.85-23.11 15.46-13.26 5.62-27.89 5.62zm584.22-570.15-50.23-50.23zm-126.13 75.9-24.79-25.67 50.46 50.46z"></path></symbol></defs><use xlink:href="#icon-edit"></use></svg>