<svg xmlns:xlink="http://www.w3.org/1999/xlink" xmlns="http://www.w3.org/2000/svg" aria-hidden="true" focusable="false" class="ud-icon ud-icon-xxlarge ud-focus-visible-target" width="24"  height="24" ><defs><symbol id="icon-play-overlay" viewBox="0 0 24 24"><path fill="#595C73" d="M12 22c5.523 0 10-4.477 10-10S17.523 2 12 2 2 6.477 2 12s4.477 10 10 10"></path><path fill="#F6F7F9" d="m10.477 16.25 5.502-3.533q.405-.258.405-.716t-.405-.717l-5.502-3.535q-.425-.291-.872-.047-.447.245-.447.764v7.068q0 .519.447.764.447.244.872-.047M12.002 24q-2.49 0-4.68-.945a12.1 12.1 0 0 1-3.811-2.564 12.1 12.1 0 0 1-2.566-3.81Q0 14.491 0 12.002t.945-4.68A12.1 12.1 0 0 1 3.509 3.51 12.1 12.1 0 0 1 7.32.945Q9.509 0 11.998 0t4.68.945q2.19.945 3.811 2.564a12.1 12.1 0 0 1 2.566 3.81Q24 9.509 24 11.998t-.945 4.68a12.1 12.1 0 0 1-2.564 3.811 12.1 12.1 0 0 1-3.81 2.566q-2.19.945-4.679.945"></path></symbol></defs><use xlink:href="#icon-play-overlay"></use></svg>