<svg xmlns:xlink="http://www.w3.org/1999/xlink" xmlns="http://www.w3.org/2000/svg" aria-hidden="true" focusable="false" class="ud-icon ud-icon-xsmall ud-icon-color-neutral ud-block-list-item-icon" width="16"  height="20" ><defs><symbol id="icon-trophy" viewBox="0 -960 960 960"><path d="M450-200v-137.08q-52.08-7.54-91.73-40.73t-53.81-83.42q-69.23-8.23-116.84-58.77Q140-570.54 140-640v-27.69q0-29.83 21.24-51.07T212.31-740h80.77v-7.69q0-29.83 21.24-51.07T365.39-820h229.22q29.83 0 51.07 21.24t21.24 51.07v7.69h80.77q29.83 0 51.07 21.24T820-667.69V-640q0 69.46-47.62 120-47.61 50.54-116.84 58.77-14.16 50.23-53.81 83.42T510-337.08V-200h112.31q12.75 0 21.37 8.63 8.63 8.63 8.63 21.38 0 12.76-8.63 21.37-8.62 8.62-21.37 8.62H337.69q-12.75 0-21.37-8.63-8.63-8.63-8.63-21.38 0-12.76 8.63-21.37 8.62-8.62 21.37-8.62zM293.08-525.69V-680h-80.77q-5.39 0-8.85 3.46t-3.46 8.85V-640q0 41.46 26.23 73.31 26.23 31.84 66.85 41m187.01 131.08q52.6 0 89.33-36.8t36.73-89.36v-226.92q0-5.39-3.46-8.85t-8.84-3.46h-227.7q-5.38 0-8.84 3.46t-3.46 8.85v226.92q0 52.56 36.82 89.36t89.42 36.8m186.83-131.08q40.62-9.16 66.85-41Q760-598.54 760-640v-27.69q0-5.39-3.46-8.85t-8.85-3.46h-80.77zM480-577.31"></path></symbol></defs><use xlink:href="#icon-trophy"></use></svg>