<svg xmlns:xlink="http://www.w3.org/1999/xlink" aria-hidden="true" width="14" height="14" viewBox="0 0 14 14" fill="none" xmlns="http://www.w3.org/2000/svg"><defs><symbol id="icon-rating-star" viewBox="0 -960 960 960"><path d="m480-292.46-155.61 93.84q-8.7 5.08-17.43 4.27t-15.8-5.88q-7.08-5.08-10.93-13.27-3.84-8.19-1.23-18.12l41.31-176.69-137.38-118.92q-7.7-6.69-9.81-15.5-2.12-8.81 1.11-17.12 3.23-8.3 9.31-13.57t16.62-6.89l181.3-15.84L451.85-763q3.84-9.31 11.65-13.77t16.5-4.46 16.5 4.46T508.15-763l70.39 166.85 181.3 15.84q10.54 1.62 16.62 6.89t9.31 13.57q3.23 8.31 1.11 17.12-2.11 8.81-9.81 15.5L639.69-408.31 681-231.62q2.61 9.93-1.23 18.12-3.85 8.19-10.93 13.27-7.07 5.07-15.8 5.88t-17.43-4.27z"></path></symbol><symbol id="icon-rating-star" viewBox="0 -960 960 960"><path d="m480-292.46-155.61 93.84q-8.7 5.08-17.43 4.27t-15.8-5.88q-7.08-5.08-10.93-13.27-3.84-8.19-1.23-18.12l41.31-176.69-137.38-118.92q-7.7-6.69-9.81-15.5-2.12-8.81 1.11-17.12 3.23-8.3 9.31-13.57t16.62-6.89l181.3-15.84L451.85-763q3.84-9.31 11.65-13.77t16.5-4.46 16.5 4.46T508.15-763l70.39 166.85 181.3 15.84q10.54 1.62 16.62 6.89t9.31 13.57q3.23 8.31 1.11 17.12-2.11 8.81-9.81 15.5L639.69-408.31 681-231.62q2.61 9.93-1.23 18.12-3.85 8.19-10.93 13.27-7.07 5.07-15.8 5.88t-17.43-4.27z"></path></symbol></defs><mask id="u511-star-rating-mask--5994" data-purpose="star-rating-mask" fill="none"><rect x="0" y="0" width="100%" height="100%" fill="#FFFFFF"></rect></mask><g class="star-rating-module--star-filled--FgjdR" mask="url(#u511-star-rating-mask--5994)" data-purpose="star-filled" fill="oklch(0.6276 0.1418 61.45)"><use xlink:href="#icon-rating-star" width="14" height="14" x="0"></use></g><g fill="#000000" class="star-rating-module--star-bordered--A4SZK" stroke-width="80px" data-purpose="star-bordered" stroke="oklch(0.6276 0.1418 61.45)" fill-opacity="0"><use xlink:href="#icon-rating-star" width="12" height="12" x="1" y="1"></use></g></svg>