<svg xmlns:xlink="http://www.w3.org/1999/xlink" xmlns="http://www.w3.org/2000/svg" aria-hidden="true" focusable="false" class="ud-icon ud-icon-xsmall ud-icon-color-neutral ud-block-list-item-icon" width="16"  height="20" ><defs><symbol id="icon-captions-outline" viewBox="0 -960 960 960"><path d="M212.31-180Q182-180 161-201t-21-51.31v-455.38Q140-738 161-759t51.31-21h535.38Q778-780 799-759t21 51.31v455.38Q820-222 799-201t-51.31 21zm0-60h535.38q4.62 0 8.46-3.85 3.85-3.84 3.85-8.46v-455.38q0-4.62-3.85-8.46-3.84-3.85-8.46-3.85H212.31q-4.62 0-8.46 3.85-3.85 3.84-3.85 8.46v455.38q0 4.62 3.85 8.46 3.84 3.85 8.46 3.85m83.08-126.15H400q17.38 0 29.46-12.08t12.08-29.46V-420q0-7.46-4.85-12.31-4.84-4.84-12.3-4.84H411q-7.46 0-12.31 4.84-4.84 4.85-4.84 12.31 0 2.31-1.93 4.23-1.92 1.92-4.23 1.92h-80q-2.3 0-4.23-1.92-1.92-1.92-1.92-4.23v-120q0-2.31 1.92-4.23 1.93-1.92 4.23-1.92h80q2.31 0 4.23 1.92 1.93 1.92 1.93 4.23 0 7.46 4.84 12.31 4.85 4.84 12.31 4.84h13.39q7.46 0 12.3-4.84 4.85-4.85 4.85-12.31v-12.31q0-17.38-12.08-29.46T400-593.85H295.39q-17.39 0-29.47 12.08-12.07 12.08-12.07 29.46v144.62q0 17.38 12.07 29.46 12.08 12.08 29.47 12.08m369.22-227.7H560q-17.38 0-29.46 12.08t-12.08 29.46v144.62q0 17.38 12.08 29.46T560-366.15h104.61q17.39 0 29.47-12.08 12.07-12.08 12.07-29.46V-420q0-7.46-4.84-12.31-4.85-4.84-12.31-4.84h-13.39q-7.46 0-12.3 4.84-4.85 4.85-4.85 12.31 0 2.31-1.92 4.23-1.93 1.92-4.23 1.92h-80q-2.31 0-4.23-1.92-1.93-1.92-1.93-4.23v-120q0-2.31 1.93-4.23 1.92-1.92 4.23-1.92h80q2.3 0 4.23 1.92 1.92 1.92 1.92 4.23 0 7.46 4.85 12.31 4.84 4.84 12.3 4.84H689q7.46 0 12.31-4.84 4.84-4.85 4.84-12.31v-12.31q0-17.38-12.07-29.46-12.08-12.08-29.47-12.08M200-240v-480z"></path></symbol></defs><use xlink:href="#icon-captions-outline"></use></svg>