<svg xmlns:xlink="http://www.w3.org/1999/xlink" xmlns="http://www.w3.org/2000/svg" aria-hidden="false" aria-label="Closed Caption Language" role="img" focusable="false" class="ud-icon ud-icon-xsmall ud-icon-color-neutral caption--subtitles-icon--6j6KM" width="16"  height="16" ><defs><symbol id="icon-subtitles" viewBox="0 -960 960 960"><path d="M172.31-180Q142-180 121-201t-21-51.31v-455.38Q100-738 121-759t51.31-21h615.38Q818-780 839-759t21 51.31v455.38Q860-222 839-201t-51.31 21zm0-60h615.38q4.62 0 8.46-3.85 3.85-3.84 3.85-8.46v-455.38q0-4.62-3.85-8.46-3.84-3.85-8.46-3.85H172.31q-4.62 0-8.46 3.85-3.85 3.84-3.85 8.46v455.38q0 4.62 3.85 8.46 3.84 3.85 8.46 3.85M160-240v-480zm121.54-91.54h256.92q12.75 0 21.38-8.63 8.62-8.63 8.62-21.38 0-12.76-8.62-21.37-8.63-8.62-21.38-8.62H281.54q-12.75 0-21.38 8.63-8.62 8.63-8.62 21.38 0 12.76 8.62 21.38 8.63 8.61 21.38 8.61m140-151.54h256.92q12.75 0 21.38-8.63 8.62-8.62 8.62-21.38t-8.62-21.37q-8.63-8.62-21.38-8.62H421.54q-12.75 0-21.38 8.63-8.62 8.63-8.62 21.39 0 12.75 8.62 21.37 8.63 8.61 21.38 8.61m-139.99 0q12.76 0 21.37-8.63 8.62-8.62 8.62-21.38t-8.63-21.37q-8.63-8.62-21.38-8.62-12.76 0-21.38 8.63-8.61 8.63-8.61 21.39 0 12.75 8.63 21.37 8.63 8.61 21.38 8.61m396.92 151.54q12.76 0 21.38-8.63 8.61-8.63 8.61-21.38 0-12.76-8.63-21.37-8.63-8.62-21.38-8.62-12.76 0-21.37 8.63-8.62 8.63-8.62 21.38 0 12.76 8.63 21.38 8.63 8.61 21.38 8.61"></path></symbol></defs><use xlink:href="#icon-subtitles"></use></svg>